<svg width="20" height="20" viewBox="0 0 20 20" fill="none" xmlns="http://www.w3.org/2000/svg">
<g clip-path="url(#clip0_3958_205)">
<path d="M9.97917 1.80144C12.6445 1.80144 12.9574 1.81332 14.0108 1.86084C14.9851 1.90441 15.5118 2.06678 15.8643 2.2054C16.3316 2.38758 16.6643 2.60144 17.0128 2.94995C17.3613 3.29847 17.5792 3.63114 17.7574 4.09847C17.892 4.45094 18.0584 4.97768 18.1019 5.95193C18.1495 7.0054 18.1613 7.31827 18.1613 9.98362C18.1613 12.649 18.1495 12.9618 18.1019 14.0153C18.0584 14.9896 17.896 15.5163 17.7574 15.8688C17.5752 16.3361 17.3613 16.6688 17.0128 17.0173C16.6643 17.3658 16.3316 17.5836 15.8643 17.7618C15.5118 17.8965 14.9851 18.0628 14.0108 18.1064C12.9574 18.1539 12.6445 18.1658 9.97917 18.1658C7.31382 18.1658 7.00095 18.1539 5.94748 18.1064C4.97323 18.0628 4.44649 17.9005 4.09402 17.7618C3.62669 17.5797 3.29402 17.3658 2.9455 17.0173C2.59699 16.6688 2.37917 16.3361 2.20095 15.8688C2.0663 15.5163 1.89996 14.9896 1.85639 14.0153C1.80887 12.9618 1.79699 12.649 1.79699 9.98362C1.79699 7.31827 1.80887 7.0054 1.85639 5.95193C1.89996 4.97768 2.06234 4.45094 2.20095 4.09847C2.38313 3.63114 2.59699 3.29847 2.9455 2.94995C3.29402 2.60144 3.62669 2.38362 4.09402 2.2054C4.44649 2.07074 4.97323 1.90441 5.94748 1.86084C7.00095 1.80936 7.31382 1.80144 9.97917 1.80144ZM9.97917 0.00341797C7.27026 0.00341797 6.92966 0.0152992 5.86432 0.0628239C4.80293 0.110349 4.07818 0.280646 3.44451 0.52619C2.78709 0.779656 2.23263 1.12421 1.67818 1.67867C1.12372 2.23312 0.783128 2.79154 0.525702 3.445C0.280157 4.07867 0.10986 4.80342 0.0623356 5.86876C0.0148109 6.93015 0.00292969 7.27075 0.00292969 9.97966C0.00292969 12.6886 0.0148109 13.0292 0.0623356 14.0945C0.10986 15.1559 0.280157 15.8806 0.525702 16.5183C0.779167 17.1757 1.12372 17.7302 1.67818 18.2846C2.23263 18.8391 2.79105 19.1797 3.44451 19.4371C4.07818 19.6826 4.80293 19.8529 5.86828 19.9004C6.93362 19.948 7.27026 19.9599 9.98313 19.9599C12.696 19.9599 13.0326 19.948 14.098 19.9004C15.1594 19.8529 15.8841 19.6826 16.5217 19.4371C17.1792 19.1836 17.7336 18.8391 18.2881 18.2846C18.8425 17.7302 19.1831 17.1717 19.4406 16.5183C19.6861 15.8846 19.8564 15.1599 19.9039 14.0945C19.9514 13.0292 19.9633 12.6925 19.9633 9.97966C19.9633 7.26678 19.9514 6.93015 19.9039 5.8648C19.8564 4.80342 19.6861 4.07867 19.4406 3.44104C19.1871 2.78362 18.8425 2.22916 18.2881 1.67471C17.7336 1.12025 17.1752 0.779656 16.5217 0.52223C15.8881 0.276685 15.1633 0.106388 14.098 0.0588635C13.0287 0.0152992 12.6881 0.00341797 9.97917 0.00341797Z" fill="#996830"/>
<path d="M9.97915 4.85498C7.15143 4.85498 4.8544 7.14805 4.8544 9.97973C4.8544 12.8114 7.15143 15.1045 9.97915 15.1045C12.8069 15.1045 15.1039 12.8075 15.1039 9.97973C15.1039 7.15201 12.8069 4.85498 9.97915 4.85498ZM9.97915 13.3065C8.14153 13.3065 6.65242 11.8174 6.65242 9.97973C6.65242 8.14211 8.14153 6.653 9.97915 6.653C11.8168 6.653 13.3059 8.14211 13.3059 9.97973C13.3059 11.8174 11.8168 13.3065 9.97915 13.3065Z" fill="#996830"/>
<path d="M15.3059 5.84911C15.9665 5.84911 16.5019 5.31363 16.5019 4.65307C16.5019 3.99252 15.9665 3.45703 15.3059 3.45703C14.6453 3.45703 14.1099 3.99252 14.1099 4.65307C14.1099 5.31363 14.6453 5.84911 15.3059 5.84911Z" fill="#996830"/>
</g>
<defs>
<clipPath id="clip0_3958_205">
<rect width="20" height="20" fill="white"/>
</clipPath>
</defs>
</svg>
