<svg width="20" height="20" viewBox="0 0 20 20" fill="none" xmlns="http://www.w3.org/2000/svg">
<path d="M19.58 5.05006C20 6.65006 20 9.99006 20 9.99006C20 9.99006 20 13.3301 19.58 14.9301C19.36 15.8101 18.68 16.5101 17.82 16.7501C16.26 17.1901 10 17.1901 10 17.1901C10 17.1901 3.74 17.1901 2.18 16.7501C1.32 16.5101 0.64 15.8101 0.42 14.9301C0 13.3301 0 9.99006 0 9.99006C0 9.99006 0 6.65006 0.42 5.05006C0.64 4.17006 1.32 3.47006 2.18 3.23006C3.74 2.81006 10 2.81006 10 2.81006C10 2.81006 16.26 2.81006 17.82 3.23006C18.68 3.47006 19.36 4.17006 19.58 5.05006ZM8.12 13.4301L13.12 10.3101L8.12 7.19006V13.4301Z" fill="#996830"/>
</svg>
